<mxfile host="Electron" agent="Mozilla/5.0 (Windows NT 10.0; Win64; x64) AppleWebKit/537.36 (KHTML, like Gecko) draw.io/26.0.9 Chrome/128.0.6613.186 Electron/32.2.5 Safari/537.36" version="26.0.9">
  <diagram name="Page-1" id="qIR4PBeUNiC2tLh2qjDa">
    <mxGraphModel dx="780" dy="504" grid="1" gridSize="10" guides="1" tooltips="1" connect="1" arrows="1" fold="1" page="1" pageScale="1" pageWidth="570" pageHeight="940" math="0" shadow="0">
      <root>
        <mxCell id="0" />
        <mxCell id="1" parent="0" />
        <mxCell id="JcxoXO1hHcja4pvg_03R-1" value="" style="rounded=0;whiteSpace=wrap;html=1;fillColor=none;" parent="1" vertex="1">
          <mxGeometry x="60" y="90" width="430" height="370" as="geometry" />
        </mxCell>
        <mxCell id="JcxoXO1hHcja4pvg_03R-2" value="&lt;b&gt;&lt;font style=&quot;font-size: 14px;&quot;&gt;Définition Des Variables/Fonctions En C Et Des Expressions Régulières Du Langage&lt;/font&gt;&lt;/b&gt;" style="rounded=1;whiteSpace=wrap;html=1;fillColor=none;" parent="1" vertex="1">
          <mxGeometry x="115" y="110" width="320" height="70" as="geometry" />
        </mxCell>
        <mxCell id="JcxoXO1hHcja4pvg_03R-3" value="&lt;font style=&quot;font-size: 22px;&quot;&gt;&lt;b&gt;Les Actions Et Les Regles&lt;/b&gt;&lt;/font&gt;" style="rounded=1;whiteSpace=wrap;html=1;fillColor=none;" parent="1" vertex="1">
          <mxGeometry x="115" y="220" width="320" height="130" as="geometry" />
        </mxCell>
        <mxCell id="JcxoXO1hHcja4pvg_03R-4" value="&lt;b&gt;&lt;font style=&quot;font-size: 14px;&quot;&gt;Redéfinition des fonctions prédéfinies&lt;/font&gt;&lt;/b&gt;" style="rounded=1;whiteSpace=wrap;html=1;fillColor=none;" parent="1" vertex="1">
          <mxGeometry x="115" y="390" width="320" height="50" as="geometry" />
        </mxCell>
      </root>
    </mxGraphModel>
  </diagram>
</mxfile>
